<?xml version="1.0" standalone="no"?><svg xmlns="http://www.w3.org/2000/svg" viewBox="0 0 1440 320"><path fill="#023F92" fill-opacity="1" d="M0,320L21.8,314.7C43.6,309,87,299,131,288C174.5,277,218,267,262,224C305.5,181,349,107,393,69.3C436.4,32,480,32,524,53.3C567.3,75,611,117,655,133.3C698.2,149,742,139,785,112C829.1,85,873,43,916,42.7C960,43,1004,85,1047,117.3C1090.9,149,1135,171,1178,160C1221.8,149,1265,107,1309,74.7C1352.7,43,1396,21,1418,10.7L1440,0L1440,0L1418.2,0C1396.4,0,1353,0,1309,0C1265.5,0,1222,0,1178,0C1134.5,0,1091,0,1047,0C1003.6,0,960,0,916,0C872.7,0,829,0,785,0C741.8,0,698,0,655,0C610.9,0,567,0,524,0C480,0,436,0,393,0C349.1,0,305,0,262,0C218.2,0,175,0,131,0C87.3,0,44,0,22,0L0,0Z"></path></svg>